<svg width="167" height="42" viewBox="0 0 167 42" fill="none" xmlns="http://www.w3.org/2000/svg">
<path d="M0 42V41.5766H0.0423385C1.05846 41.5766 1.87701 41.3085 2.49797 40.7722C3.11893 40.2359 3.42942 39.4597 3.42942 38.4436V14.0566C3.42942 13.0405 3.11893 12.222 2.49797 11.601C1.87701 10.98 1.05846 10.6695 0.0423385 10.6695H0V10.2462H6.13908C8.24354 10.2462 9.94954 11.9522 9.94954 14.0566V38.6129C9.94954 39.5162 10.1612 40.2218 10.5846 40.7299C11.0362 41.2097 11.8124 41.4496 12.9132 41.4496H13.8023C16.3144 41.4496 18.4313 40.6734 20.1531 39.121C21.8749 37.5686 22.9616 35.3811 23.4132 32.5585H23.8366V42H0Z" fill="black"/>
<path d="M41.4785 37.5169C40.7496 38.8423 39.6421 39.9209 38.1562 40.7525C36.6702 41.5842 35.1002 42 33.446 42C31.5675 42 30.0536 41.4282 28.9041 40.2847C27.7826 39.1412 27.2218 37.6338 27.2218 35.7626V25.1591C27.2218 24.1715 27.0116 23.4049 26.591 22.8591C26.1705 22.3133 25.2453 22.0404 23.8154 22.0404V21.6506H28.063C29.4928 21.6506 30.5863 21.5077 31.3433 21.2218C32.0442 20.9359 32.5348 20.5851 32.8152 20.1692H33.2357V36.1525C33.2357 37.4519 33.5161 38.4915 34.0768 39.2712C34.6376 40.0508 35.3665 40.4407 36.2637 40.4407C37.1328 40.4407 38.03 40.1028 38.9552 39.4271C39.8804 38.7254 40.6935 37.7898 41.3944 36.6203V25.1591C41.3944 24.2235 41.1421 23.4698 40.6374 22.8981C40.1328 22.3263 39.2636 22.0404 38.03 22.0404V21.6506H42.2776C43.7075 21.6506 44.8009 21.5077 45.5579 21.2218C46.2868 20.9359 46.7915 20.5851 47.0719 20.1692H47.4924L47.4504 37.9457C47.4504 38.8813 47.7588 39.648 48.3756 40.2457C48.8979 40.73 49.473 41.511 50.2769 41.5852V41.9561H43.3773C41.7828 41.4104 41.3944 40.7525 41.4785 37.5169Z" fill="black"/>
<path d="M50.7271 42H63.1565V41.5927H63.1144C62.1042 41.5927 61.2905 41.294 60.6732 40.6967C60.0558 40.0993 59.7472 39.3119 59.7472 38.3344V26.36C60.4487 25.1382 61.2624 24.1743 62.1884 23.4683C63.1424 22.7352 64.0544 22.3686 64.9242 22.3686C65.8222 22.3686 66.5377 22.7759 67.0708 23.5905C67.632 24.4051 67.9126 25.4912 67.9126 26.8488V38.3344C67.9126 39.3119 67.604 40.0993 66.9866 40.6967C66.3693 41.294 65.5556 41.5927 64.5454 41.5927H64.5033V42H77.3408V41.5927H77.2987C76.2885 41.5927 75.4748 41.294 74.8575 40.6967C74.2402 40.0993 73.9315 39.3119 73.9315 38.3344V26.6044C73.9315 26.523 73.9175 26.4551 73.8894 26.4008C74.5909 25.2061 75.4187 24.2421 76.3727 23.509C77.3268 22.7487 78.2387 22.3686 79.1086 22.3686C80.0065 22.3686 80.736 22.7759 81.2972 23.5905C81.8584 24.4051 82.1391 25.4912 82.1391 26.8488V38.3344C82.1391 39.3119 81.8304 40.0993 81.2131 40.6967C80.5958 41.294 79.782 41.5927 78.7719 41.5927H78.7298V42H91.2923V41.5872L91.2465 41.5848C90.3643 41.5341 89.6434 41.2381 89.0839 40.6967C88.4666 40.0993 88.1579 39.3119 88.1579 38.3344V27.2561C88.1579 25.3011 87.5827 23.7262 86.4322 22.5315C85.3098 21.3368 83.8086 20.7394 81.9286 20.7394C80.2169 20.7394 78.6175 21.1739 77.1303 22.0428C75.6712 22.9117 74.5488 24.0792 73.7631 25.5455C73.4545 24.0792 72.767 22.9117 71.7007 22.0428C70.6345 21.1739 69.3016 20.7394 67.7022 20.7394C66.0466 20.7394 64.4753 21.1739 62.9881 22.0428C61.5009 22.9117 60.3926 24.0521 59.663 25.464L59.6209 20.1692H59.2C59.0597 20.3593 58.8352 20.5494 58.5266 20.7394C58.2179 20.9024 57.7409 21.0381 57.0955 21.1467C56.4782 21.2553 55.5943 21.3096 54.4438 21.3096H50.2769V21.7169C51.6799 21.7169 52.5919 22.002 53.0128 22.5722C53.4617 23.1424 53.6862 23.9435 53.6862 24.9753V38.3344C53.6862 39.3119 53.3776 40.0993 52.7602 40.6967C52.2283 41.2114 51.5506 41.5043 50.7271 41.5756V42Z" fill="black"/>
<path d="M94.7946 39.2739C94.7946 40.0008 94.4775 40.5865 93.8433 41.0307C93.3611 41.3686 92.7621 41.6143 92.0465 41.6952V42H104.523V41.6971H104.48C103.442 41.6971 102.606 41.475 101.972 41.0307C101.338 40.5865 101.021 40.0008 101.021 39.2739V25.1308H100.588C99.9343 25.9736 98.9556 26.5023 97.892 26.5874L97.5769 26.6126H97.5207C96.0151 26.6126 94.7946 27.8331 94.7946 29.3387V39.2739Z" fill="black"/>
<path d="M114.606 42C112.641 42 110.889 41.5367 109.351 40.61C107.841 39.6834 106.659 38.4024 105.805 36.7672C104.95 35.1046 104.523 33.2105 104.523 31.0846C104.523 28.9043 104.993 26.9965 105.933 25.3612C106.873 23.7259 108.155 22.4586 109.778 21.5592C111.43 20.6326 113.296 20.1692 115.375 20.1692C117.113 20.1692 118.651 20.4963 119.989 21.1504C121.356 21.8045 122.439 22.7311 123.236 23.9303C124.062 25.1023 124.532 26.465 124.646 28.0185L124.689 28.6317H114.713V28.0185H119.049C119.049 25.8654 118.679 24.1211 117.939 22.7857C117.226 21.4502 116.215 20.7825 114.905 20.7825C113.652 20.7825 112.612 21.4366 111.786 22.7448C110.96 24.053 110.49 25.8109 110.376 28.0185L110.334 28.6317V28.8361C110.334 31.7251 111.003 34.0417 112.342 35.786C113.68 37.503 115.475 38.3615 117.725 38.3615C119.092 38.3615 120.388 38.0481 121.613 37.4213C122.866 36.7672 123.877 35.895 124.646 34.8048L125.031 34.9275C124.547 36.3175 123.792 37.5439 122.766 38.6068C121.741 39.6697 120.53 40.501 119.135 41.1006C117.739 41.7002 116.23 42 114.606 42Z" fill="black"/>
<path d="M125.031 42V41.6002H125.073C126.092 41.6002 126.912 41.307 127.535 40.7205C128.157 40.1341 128.469 39.3611 128.469 38.4015V25.2871C128.469 24.2742 128.242 23.4878 127.79 22.9281C127.365 22.3683 126.446 22.0884 125.031 22.0884V21.6886H129.233C130.732 21.6886 131.864 21.5553 132.628 21.2888C133.392 20.9955 133.93 20.6224 134.241 20.1692H134.453L134.496 26.7265C134.864 25.9268 135.33 25.0871 135.896 24.2075C136.491 23.3279 137.226 22.5949 138.103 22.0085C139.009 21.3954 140.084 21.0888 141.329 21.0888C141.754 21.0888 142.206 21.1288 142.687 21.2088C143.168 21.2888 143.678 21.4354 144.215 21.6486L142.56 26.3266C141.541 25.7935 140.65 25.4203 139.886 25.2071C139.15 24.9939 138.5 24.8872 137.934 24.8872C136.972 24.8872 136.25 25.1671 135.769 25.7269C135.316 26.2866 134.92 26.953 134.581 27.726V38.4015C134.581 39.3611 134.892 40.1341 135.514 40.7205C136.137 41.307 136.957 41.6002 137.976 41.6002H138.019V42H125.031Z" fill="black"/>
<path d="M155.621 42C153.656 42 151.904 41.5367 150.366 40.61C148.857 39.6834 147.675 38.4024 146.82 36.7672C145.966 35.1046 145.538 33.2105 145.538 31.0846C145.538 28.9043 146.008 26.9965 146.948 25.3612C147.888 23.7259 149.17 22.4586 150.794 21.5592C152.446 20.6326 154.311 20.1692 156.39 20.1692C158.128 20.1692 159.666 20.4963 161.005 21.1504C162.372 21.8045 163.454 22.7311 164.252 23.9303C165.078 25.1023 165.548 26.465 165.662 28.0185L165.704 28.6317H155.728V28.0185H160.065C160.065 25.8654 159.694 24.1211 158.954 22.7857C158.242 21.4502 157.231 20.7825 155.92 20.7825C154.667 20.7825 153.628 21.4366 152.802 22.7448C151.976 24.053 151.506 25.8109 151.392 28.0185L151.349 28.6317V28.8361C151.349 31.7251 152.018 34.0417 153.357 35.786C154.696 37.503 156.49 38.3615 158.74 38.3615C160.107 38.3615 161.403 38.0481 162.628 37.4213C163.881 36.7672 164.893 35.895 165.662 34.8048L166.046 34.9275C165.562 36.3175 164.807 37.5439 163.782 38.6068C162.756 39.6697 161.546 40.501 160.15 41.1006C158.755 41.7002 157.245 42 155.621 42Z" fill="black"/>
<path d="M93.9385 21.2653L97.6807 17.5231L101.423 21.2653L97.6807 25.0075L93.9385 21.2653Z" fill="black"/>
<path d="M88.1302 8.82916L93.0076 12.7016H102.522L88.1302 0L69 18.378H77.7736L88.1302 8.82916Z" fill="black"/>
<path fill-rule="evenodd" clip-rule="evenodd" d="M112.005 12.6984H102.522L110.007 18.378H118.738L112.005 12.6984Z" fill="black"/>
</svg>
